<mxfile host="Electron" modified="2023-04-22T07:54:29.665Z" agent="Mozilla/5.0 (Windows NT 10.0; Win64; x64) AppleWebKit/537.36 (KHTML, like Gecko) draw.io/21.1.2 Chrome/106.0.5249.199 Electron/21.4.3 Safari/537.36" etag="WICeiGHr_iAgbssABqGN" version="21.1.2" type="device" pages="5">
  <diagram name="All" id="IkNzUaiXdAzliDNwTcWC">
    <mxGraphModel dx="821" dy="571" grid="1" gridSize="10" guides="1" tooltips="1" connect="1" arrows="1" fold="1" page="1" pageScale="1" pageWidth="827" pageHeight="1169" math="0" shadow="0">
      <root>
        <mxCell id="0" />
        <mxCell id="1" parent="0" />
        <mxCell id="ehtIsg4Oo_btrEdT0cyX-18" value="" style="verticalLabelPosition=bottom;verticalAlign=top;html=1;shape=mxgraph.basic.rect;fillColor2=none;strokeWidth=1;size=20;indent=5;" parent="1" vertex="1">
          <mxGeometry x="325" y="155" width="185" height="985" as="geometry" />
        </mxCell>
        <mxCell id="ehtIsg4Oo_btrEdT0cyX-8" value="Editor" style="shape=umlActor;verticalLabelPosition=bottom;verticalAlign=top;html=1;outlineConnect=0;" parent="1" vertex="1">
          <mxGeometry x="103" y="488" width="30" height="60" as="geometry" />
        </mxCell>
        <mxCell id="ehtIsg4Oo_btrEdT0cyX-10" value="Login" style="ellipse;whiteSpace=wrap;html=1;" parent="1" vertex="1">
          <mxGeometry x="350" y="164" width="140" height="70" as="geometry" />
        </mxCell>
        <mxCell id="ehtIsg4Oo_btrEdT0cyX-11" value="Set information" style="ellipse;whiteSpace=wrap;html=1;" parent="1" vertex="1">
          <mxGeometry x="350" y="254" width="140" height="70" as="geometry" />
        </mxCell>
        <mxCell id="ehtIsg4Oo_btrEdT0cyX-12" value="Upload document" style="ellipse;whiteSpace=wrap;html=1;" parent="1" vertex="1">
          <mxGeometry x="350" y="344" width="140" height="70" as="geometry" />
        </mxCell>
        <mxCell id="ehtIsg4Oo_btrEdT0cyX-13" value="View document" style="ellipse;whiteSpace=wrap;html=1;" parent="1" vertex="1">
          <mxGeometry x="350" y="434" width="140" height="70" as="geometry" />
        </mxCell>
        <mxCell id="ehtIsg4Oo_btrEdT0cyX-14" value="Download document" style="ellipse;whiteSpace=wrap;html=1;" parent="1" vertex="1">
          <mxGeometry x="350" y="614" width="140" height="70" as="geometry" />
        </mxCell>
        <mxCell id="ehtIsg4Oo_btrEdT0cyX-15" value="Edit document" style="ellipse;whiteSpace=wrap;html=1;" parent="1" vertex="1">
          <mxGeometry x="350" y="524" width="140" height="70" as="geometry" />
        </mxCell>
        <mxCell id="ehtIsg4Oo_btrEdT0cyX-16" value="Notify document" style="ellipse;whiteSpace=wrap;html=1;" parent="1" vertex="1">
          <mxGeometry x="350" y="704" width="140" height="70" as="geometry" />
        </mxCell>
        <mxCell id="ehtIsg4Oo_btrEdT0cyX-17" value="Log out" style="ellipse;whiteSpace=wrap;html=1;" parent="1" vertex="1">
          <mxGeometry x="350" y="794" width="140" height="70" as="geometry" />
        </mxCell>
        <mxCell id="ehtIsg4Oo_btrEdT0cyX-19" value="" style="endArrow=open;endFill=1;endSize=12;html=1;rounded=0;entryX=0;entryY=0.5;entryDx=0;entryDy=0;exitX=1;exitY=0.3333333333333333;exitDx=0;exitDy=0;exitPerimeter=0;" parent="1" source="ehtIsg4Oo_btrEdT0cyX-8" target="ehtIsg4Oo_btrEdT0cyX-10" edge="1">
          <mxGeometry width="160" relative="1" as="geometry">
            <mxPoint x="120" y="454" as="sourcePoint" />
            <mxPoint x="350" y="194" as="targetPoint" />
          </mxGeometry>
        </mxCell>
        <mxCell id="ehtIsg4Oo_btrEdT0cyX-20" value="" style="endArrow=open;endFill=1;endSize=12;html=1;rounded=0;entryX=0;entryY=0.5;entryDx=0;entryDy=0;exitX=1;exitY=0.3333333333333333;exitDx=0;exitDy=0;exitPerimeter=0;" parent="1" source="ehtIsg4Oo_btrEdT0cyX-8" target="ehtIsg4Oo_btrEdT0cyX-11" edge="1">
          <mxGeometry width="160" relative="1" as="geometry">
            <mxPoint x="470" y="534" as="sourcePoint" />
            <mxPoint x="630" y="534" as="targetPoint" />
          </mxGeometry>
        </mxCell>
        <mxCell id="ehtIsg4Oo_btrEdT0cyX-21" value="" style="endArrow=open;endFill=1;endSize=12;html=1;rounded=0;entryX=0;entryY=0.5;entryDx=0;entryDy=0;exitX=1;exitY=0.3333333333333333;exitDx=0;exitDy=0;exitPerimeter=0;" parent="1" source="ehtIsg4Oo_btrEdT0cyX-8" target="ehtIsg4Oo_btrEdT0cyX-12" edge="1">
          <mxGeometry width="160" relative="1" as="geometry">
            <mxPoint x="470" y="534" as="sourcePoint" />
            <mxPoint x="630" y="534" as="targetPoint" />
          </mxGeometry>
        </mxCell>
        <mxCell id="ehtIsg4Oo_btrEdT0cyX-23" value="" style="endArrow=open;endFill=1;endSize=12;html=1;rounded=0;entryX=0;entryY=0.5;entryDx=0;entryDy=0;exitX=1;exitY=0.3333333333333333;exitDx=0;exitDy=0;exitPerimeter=0;" parent="1" source="ehtIsg4Oo_btrEdT0cyX-8" target="ehtIsg4Oo_btrEdT0cyX-13" edge="1">
          <mxGeometry width="160" relative="1" as="geometry">
            <mxPoint x="470" y="534" as="sourcePoint" />
            <mxPoint x="630" y="534" as="targetPoint" />
          </mxGeometry>
        </mxCell>
        <mxCell id="ehtIsg4Oo_btrEdT0cyX-24" value="" style="endArrow=open;endFill=1;endSize=12;html=1;rounded=0;exitX=1;exitY=0.3333333333333333;exitDx=0;exitDy=0;exitPerimeter=0;entryX=0;entryY=0.5;entryDx=0;entryDy=0;" parent="1" source="ehtIsg4Oo_btrEdT0cyX-8" target="ehtIsg4Oo_btrEdT0cyX-15" edge="1">
          <mxGeometry width="160" relative="1" as="geometry">
            <mxPoint x="470" y="534" as="sourcePoint" />
            <mxPoint x="630" y="534" as="targetPoint" />
          </mxGeometry>
        </mxCell>
        <mxCell id="ehtIsg4Oo_btrEdT0cyX-25" value="" style="endArrow=open;endFill=1;endSize=12;html=1;rounded=0;entryX=0;entryY=0.5;entryDx=0;entryDy=0;exitX=1;exitY=0.3333333333333333;exitDx=0;exitDy=0;exitPerimeter=0;" parent="1" source="ehtIsg4Oo_btrEdT0cyX-8" target="ehtIsg4Oo_btrEdT0cyX-14" edge="1">
          <mxGeometry width="160" relative="1" as="geometry">
            <mxPoint x="190" y="594" as="sourcePoint" />
            <mxPoint x="630" y="534" as="targetPoint" />
          </mxGeometry>
        </mxCell>
        <mxCell id="ehtIsg4Oo_btrEdT0cyX-26" value="" style="endArrow=open;endFill=1;endSize=12;html=1;rounded=0;entryX=0;entryY=0.5;entryDx=0;entryDy=0;exitX=1;exitY=0.3333333333333333;exitDx=0;exitDy=0;exitPerimeter=0;" parent="1" source="ehtIsg4Oo_btrEdT0cyX-8" target="ehtIsg4Oo_btrEdT0cyX-16" edge="1">
          <mxGeometry width="160" relative="1" as="geometry">
            <mxPoint x="470" y="534" as="sourcePoint" />
            <mxPoint x="630" y="534" as="targetPoint" />
          </mxGeometry>
        </mxCell>
        <mxCell id="ehtIsg4Oo_btrEdT0cyX-27" value="" style="endArrow=open;endFill=1;endSize=12;html=1;rounded=0;entryX=0;entryY=0.5;entryDx=0;entryDy=0;exitX=1;exitY=0.3333333333333333;exitDx=0;exitDy=0;exitPerimeter=0;" parent="1" source="ehtIsg4Oo_btrEdT0cyX-8" target="ehtIsg4Oo_btrEdT0cyX-17" edge="1">
          <mxGeometry width="160" relative="1" as="geometry">
            <mxPoint x="470" y="534" as="sourcePoint" />
            <mxPoint x="630" y="534" as="targetPoint" />
          </mxGeometry>
        </mxCell>
        <mxCell id="n1pUbciSOWFqMYwxuIik-1" value="Admin" style="shape=umlActor;verticalLabelPosition=bottom;verticalAlign=top;html=1;outlineConnect=0;" parent="1" vertex="1">
          <mxGeometry x="740" y="488" width="30" height="60" as="geometry" />
        </mxCell>
        <mxCell id="n1pUbciSOWFqMYwxuIik-2" value="Create account" style="ellipse;whiteSpace=wrap;html=1;" parent="1" vertex="1">
          <mxGeometry x="350" y="880" width="140" height="70" as="geometry" />
        </mxCell>
        <mxCell id="n1pUbciSOWFqMYwxuIik-3" value="Check profile" style="ellipse;whiteSpace=wrap;html=1;" parent="1" vertex="1">
          <mxGeometry x="350" y="970" width="140" height="70" as="geometry" />
        </mxCell>
        <mxCell id="n1pUbciSOWFqMYwxuIik-4" value="Reset password for all user" style="ellipse;whiteSpace=wrap;html=1;" parent="1" vertex="1">
          <mxGeometry x="350" y="1060" width="140" height="70" as="geometry" />
        </mxCell>
        <mxCell id="n1pUbciSOWFqMYwxuIik-5" value="" style="endArrow=open;endFill=1;endSize=12;html=1;rounded=0;exitX=0;exitY=0.3333333333333333;exitDx=0;exitDy=0;exitPerimeter=0;entryX=1;entryY=0.5;entryDx=0;entryDy=0;" parent="1" source="n1pUbciSOWFqMYwxuIik-1" target="ehtIsg4Oo_btrEdT0cyX-10" edge="1">
          <mxGeometry width="160" relative="1" as="geometry">
            <mxPoint x="500" y="780" as="sourcePoint" />
            <mxPoint x="660" y="780" as="targetPoint" />
          </mxGeometry>
        </mxCell>
        <mxCell id="n1pUbciSOWFqMYwxuIik-6" value="" style="endArrow=open;endFill=1;endSize=12;html=1;rounded=0;exitX=0;exitY=0.3333333333333333;exitDx=0;exitDy=0;exitPerimeter=0;entryX=1;entryY=0.5;entryDx=0;entryDy=0;" parent="1" source="n1pUbciSOWFqMYwxuIik-1" target="ehtIsg4Oo_btrEdT0cyX-11" edge="1">
          <mxGeometry width="160" relative="1" as="geometry">
            <mxPoint x="500" y="790" as="sourcePoint" />
            <mxPoint x="660" y="790" as="targetPoint" />
          </mxGeometry>
        </mxCell>
        <mxCell id="n1pUbciSOWFqMYwxuIik-7" value="" style="endArrow=open;endFill=1;endSize=12;html=1;rounded=0;exitX=0;exitY=0.3333333333333333;exitDx=0;exitDy=0;exitPerimeter=0;entryX=1;entryY=0.5;entryDx=0;entryDy=0;" parent="1" source="n1pUbciSOWFqMYwxuIik-1" target="ehtIsg4Oo_btrEdT0cyX-17" edge="1">
          <mxGeometry width="160" relative="1" as="geometry">
            <mxPoint x="500" y="660" as="sourcePoint" />
            <mxPoint x="660" y="660" as="targetPoint" />
          </mxGeometry>
        </mxCell>
        <mxCell id="n1pUbciSOWFqMYwxuIik-8" value="" style="endArrow=open;endFill=1;endSize=12;html=1;rounded=0;exitX=0;exitY=0.3333333333333333;exitDx=0;exitDy=0;exitPerimeter=0;entryX=1;entryY=0.5;entryDx=0;entryDy=0;" parent="1" source="n1pUbciSOWFqMYwxuIik-1" target="n1pUbciSOWFqMYwxuIik-2" edge="1">
          <mxGeometry width="160" relative="1" as="geometry">
            <mxPoint x="500" y="710" as="sourcePoint" />
            <mxPoint x="660" y="710" as="targetPoint" />
          </mxGeometry>
        </mxCell>
        <mxCell id="n1pUbciSOWFqMYwxuIik-9" value="" style="endArrow=open;endFill=1;endSize=12;html=1;rounded=0;exitX=0;exitY=0.3333333333333333;exitDx=0;exitDy=0;exitPerimeter=0;entryX=1;entryY=0.5;entryDx=0;entryDy=0;" parent="1" source="n1pUbciSOWFqMYwxuIik-1" target="n1pUbciSOWFqMYwxuIik-3" edge="1">
          <mxGeometry width="160" relative="1" as="geometry">
            <mxPoint x="500" y="710" as="sourcePoint" />
            <mxPoint x="660" y="710" as="targetPoint" />
          </mxGeometry>
        </mxCell>
        <mxCell id="n1pUbciSOWFqMYwxuIik-10" value="" style="endArrow=open;endFill=1;endSize=12;html=1;rounded=0;exitX=0;exitY=0.3333333333333333;exitDx=0;exitDy=0;exitPerimeter=0;entryX=1;entryY=0.5;entryDx=0;entryDy=0;" parent="1" source="n1pUbciSOWFqMYwxuIik-1" target="n1pUbciSOWFqMYwxuIik-4" edge="1">
          <mxGeometry width="160" relative="1" as="geometry">
            <mxPoint x="500" y="850" as="sourcePoint" />
            <mxPoint x="660" y="850" as="targetPoint" />
          </mxGeometry>
        </mxCell>
      </root>
    </mxGraphModel>
  </diagram>
  <diagram id="sVh4Llus387ggkk9mLU2" name="Login">
    <mxGraphModel dx="1222" dy="857" grid="1" gridSize="10" guides="1" tooltips="1" connect="1" arrows="1" fold="1" page="1" pageScale="1" pageWidth="827" pageHeight="1169" math="0" shadow="0">
      <root>
        <mxCell id="0" />
        <mxCell id="1" parent="0" />
        <mxCell id="6OFfmoWPv642zYZvqouN-30" value="" style="verticalLabelPosition=bottom;verticalAlign=top;html=1;shape=mxgraph.basic.rect;fillColor2=none;strokeWidth=1;size=20;indent=5;" vertex="1" parent="1">
          <mxGeometry x="320" y="160" width="160" height="840" as="geometry" />
        </mxCell>
        <mxCell id="6OFfmoWPv642zYZvqouN-1" value="Existing user" style="shape=umlActor;verticalLabelPosition=bottom;verticalAlign=top;html=1;outlineConnect=0;" vertex="1" parent="1">
          <mxGeometry x="103" y="410" width="30" height="60" as="geometry" />
        </mxCell>
        <mxCell id="6OFfmoWPv642zYZvqouN-2" value="Fill username, password" style="ellipse;whiteSpace=wrap;html=1;" vertex="1" parent="1">
          <mxGeometry x="330" y="204" width="140" height="70" as="geometry" />
        </mxCell>
        <mxCell id="6OFfmoWPv642zYZvqouN-4" value="Forgot password" style="ellipse;whiteSpace=wrap;html=1;" vertex="1" parent="1">
          <mxGeometry x="330" y="305" width="140" height="70" as="geometry" />
        </mxCell>
        <mxCell id="6OFfmoWPv642zYZvqouN-5" value="Save username, password" style="ellipse;whiteSpace=wrap;html=1;" vertex="1" parent="1">
          <mxGeometry x="330" y="410" width="140" height="70" as="geometry" />
        </mxCell>
        <mxCell id="6OFfmoWPv642zYZvqouN-6" value="Authentication&lt;span id=&quot;docs-internal-guid-ee535c2f-7fff-a496-18b6-2dd860153122&quot;&gt;&lt;/span&gt;&lt;span id=&quot;docs-internal-guid-ee535c2f-7fff-a496-18b6-2dd860153122&quot;&gt;&lt;/span&gt;&lt;span id=&quot;docs-internal-guid-ee535c2f-7fff-a496-18b6-2dd860153122&quot;&gt;&lt;/span&gt;&lt;span id=&quot;docs-internal-guid-88a149ee-7fff-91a4-eda8-40a7a0855ec4&quot;&gt;&lt;/span&gt;&lt;span id=&quot;docs-internal-guid-88a149ee-7fff-91a4-eda8-40a7a0855ec4&quot;&gt;&lt;/span&gt;" style="ellipse;whiteSpace=wrap;html=1;" vertex="1" parent="1">
          <mxGeometry x="330" y="514.5" width="140" height="70" as="geometry" />
        </mxCell>
        <mxCell id="6OFfmoWPv642zYZvqouN-7" value="Check login fail&lt;span id=&quot;docs-internal-guid-88a149ee-7fff-91a4-eda8-40a7a0855ec4&quot;&gt;&lt;/span&gt;" style="ellipse;whiteSpace=wrap;html=1;" vertex="1" parent="1">
          <mxGeometry x="330" y="610" width="140" height="70" as="geometry" />
        </mxCell>
        <mxCell id="6OFfmoWPv642zYZvqouN-10" value="Newbie user" style="shape=umlActor;verticalLabelPosition=bottom;verticalAlign=top;html=1;outlineConnect=0;" vertex="1" parent="1">
          <mxGeometry x="103" y="640" width="30" height="60" as="geometry" />
        </mxCell>
        <mxCell id="6OFfmoWPv642zYZvqouN-11" value="Sytem" style="shape=umlActor;verticalLabelPosition=bottom;verticalAlign=top;html=1;outlineConnect=0;" vertex="1" parent="1">
          <mxGeometry x="760" y="490" width="30" height="60" as="geometry" />
        </mxCell>
        <mxCell id="6OFfmoWPv642zYZvqouN-13" value="Require enter a new &lt;br&gt;valid password&lt;span id=&quot;docs-internal-guid-88a149ee-7fff-91a4-eda8-40a7a0855ec4&quot;&gt;&lt;/span&gt;" style="ellipse;whiteSpace=wrap;html=1;" vertex="1" parent="1">
          <mxGeometry x="330" y="710" width="140" height="70" as="geometry" />
        </mxCell>
        <mxCell id="6OFfmoWPv642zYZvqouN-14" value="" style="endArrow=open;endFill=1;endSize=12;html=1;rounded=0;entryX=0;entryY=0.5;entryDx=0;entryDy=0;exitX=1;exitY=0.3333333333333333;exitDx=0;exitDy=0;exitPerimeter=0;" edge="1" parent="1" source="6OFfmoWPv642zYZvqouN-10" target="6OFfmoWPv642zYZvqouN-2">
          <mxGeometry width="160" relative="1" as="geometry">
            <mxPoint x="130" y="638.82" as="sourcePoint" />
            <mxPoint x="290" y="638.82" as="targetPoint" />
          </mxGeometry>
        </mxCell>
        <mxCell id="6OFfmoWPv642zYZvqouN-15" value="Lock user" style="ellipse;whiteSpace=wrap;html=1;" vertex="1" parent="1">
          <mxGeometry x="330" y="810" width="140" height="70" as="geometry" />
        </mxCell>
        <mxCell id="6OFfmoWPv642zYZvqouN-16" value="" style="endArrow=open;endFill=1;endSize=12;html=1;rounded=0;entryX=0;entryY=0.5;entryDx=0;entryDy=0;exitX=1;exitY=0.3333333333333333;exitDx=0;exitDy=0;exitPerimeter=0;" edge="1" parent="1" source="6OFfmoWPv642zYZvqouN-10" target="6OFfmoWPv642zYZvqouN-5">
          <mxGeometry width="160" relative="1" as="geometry">
            <mxPoint x="150" y="650" as="sourcePoint" />
            <mxPoint x="310" y="650" as="targetPoint" />
          </mxGeometry>
        </mxCell>
        <mxCell id="6OFfmoWPv642zYZvqouN-17" value="Notify login fail/error password" style="ellipse;whiteSpace=wrap;html=1;" vertex="1" parent="1">
          <mxGeometry x="330" y="910" width="140" height="70" as="geometry" />
        </mxCell>
        <mxCell id="6OFfmoWPv642zYZvqouN-18" value="" style="endArrow=open;endFill=1;endSize=12;html=1;rounded=0;entryX=1;entryY=0.3333333333333333;entryDx=0;entryDy=0;entryPerimeter=0;exitX=0;exitY=0.5;exitDx=0;exitDy=0;" edge="1" parent="1" source="6OFfmoWPv642zYZvqouN-13" target="6OFfmoWPv642zYZvqouN-10">
          <mxGeometry width="160" relative="1" as="geometry">
            <mxPoint x="160" y="800" as="sourcePoint" />
            <mxPoint x="320" y="800" as="targetPoint" />
          </mxGeometry>
        </mxCell>
        <mxCell id="6OFfmoWPv642zYZvqouN-19" value="" style="endArrow=open;endFill=1;endSize=12;html=1;rounded=0;entryX=1;entryY=0.5;entryDx=0;entryDy=0;exitX=0;exitY=0.3333333333333333;exitDx=0;exitDy=0;exitPerimeter=0;" edge="1" parent="1" source="6OFfmoWPv642zYZvqouN-11" target="6OFfmoWPv642zYZvqouN-13">
          <mxGeometry width="160" relative="1" as="geometry">
            <mxPoint x="360" y="630" as="sourcePoint" />
            <mxPoint x="520" y="630" as="targetPoint" />
          </mxGeometry>
        </mxCell>
        <mxCell id="6OFfmoWPv642zYZvqouN-20" value="" style="endArrow=open;endFill=1;endSize=12;html=1;rounded=0;exitX=0;exitY=0.3333333333333333;exitDx=0;exitDy=0;exitPerimeter=0;entryX=1;entryY=0.5;entryDx=0;entryDy=0;" edge="1" parent="1" source="6OFfmoWPv642zYZvqouN-11" target="6OFfmoWPv642zYZvqouN-6">
          <mxGeometry width="160" relative="1" as="geometry">
            <mxPoint x="360" y="520" as="sourcePoint" />
            <mxPoint x="520" y="520" as="targetPoint" />
          </mxGeometry>
        </mxCell>
        <mxCell id="6OFfmoWPv642zYZvqouN-21" value="" style="endArrow=open;endFill=1;endSize=12;html=1;rounded=0;exitX=0;exitY=0.3333333333333333;exitDx=0;exitDy=0;exitPerimeter=0;entryX=1;entryY=0.5;entryDx=0;entryDy=0;" edge="1" parent="1" source="6OFfmoWPv642zYZvqouN-11" target="6OFfmoWPv642zYZvqouN-7">
          <mxGeometry width="160" relative="1" as="geometry">
            <mxPoint x="360" y="590" as="sourcePoint" />
            <mxPoint x="520" y="590" as="targetPoint" />
          </mxGeometry>
        </mxCell>
        <mxCell id="6OFfmoWPv642zYZvqouN-22" value="" style="endArrow=open;endFill=1;endSize=12;html=1;rounded=0;exitX=0;exitY=0.3333333333333333;exitDx=0;exitDy=0;exitPerimeter=0;entryX=1;entryY=0.5;entryDx=0;entryDy=0;" edge="1" parent="1" source="6OFfmoWPv642zYZvqouN-11" target="6OFfmoWPv642zYZvqouN-15">
          <mxGeometry width="160" relative="1" as="geometry">
            <mxPoint x="360" y="760" as="sourcePoint" />
            <mxPoint x="520" y="760" as="targetPoint" />
          </mxGeometry>
        </mxCell>
        <mxCell id="6OFfmoWPv642zYZvqouN-23" value="" style="endArrow=open;endFill=1;endSize=12;html=1;rounded=0;entryX=1;entryY=0.5;entryDx=0;entryDy=0;" edge="1" parent="1" target="6OFfmoWPv642zYZvqouN-17">
          <mxGeometry width="160" relative="1" as="geometry">
            <mxPoint x="760" y="510" as="sourcePoint" />
            <mxPoint x="520" y="760" as="targetPoint" />
          </mxGeometry>
        </mxCell>
        <mxCell id="6OFfmoWPv642zYZvqouN-24" value="" style="endArrow=open;endFill=1;endSize=12;html=1;rounded=0;entryX=1;entryY=0.3333333333333333;entryDx=0;entryDy=0;entryPerimeter=0;exitX=0;exitY=0.5;exitDx=0;exitDy=0;" edge="1" parent="1" source="6OFfmoWPv642zYZvqouN-17" target="6OFfmoWPv642zYZvqouN-10">
          <mxGeometry width="160" relative="1" as="geometry">
            <mxPoint x="360" y="720" as="sourcePoint" />
            <mxPoint x="130" y="660" as="targetPoint" />
          </mxGeometry>
        </mxCell>
        <mxCell id="6OFfmoWPv642zYZvqouN-25" value="" style="endArrow=open;endFill=1;endSize=12;html=1;rounded=0;entryX=0;entryY=0.5;entryDx=0;entryDy=0;exitX=1;exitY=0.3333333333333333;exitDx=0;exitDy=0;exitPerimeter=0;" edge="1" parent="1" source="6OFfmoWPv642zYZvqouN-1" target="6OFfmoWPv642zYZvqouN-2">
          <mxGeometry width="160" relative="1" as="geometry">
            <mxPoint x="360" y="620" as="sourcePoint" />
            <mxPoint x="520" y="620" as="targetPoint" />
          </mxGeometry>
        </mxCell>
        <mxCell id="6OFfmoWPv642zYZvqouN-26" value="" style="endArrow=open;endFill=1;endSize=12;html=1;rounded=0;entryX=0;entryY=0.5;entryDx=0;entryDy=0;exitX=1;exitY=0.3333333333333333;exitDx=0;exitDy=0;exitPerimeter=0;" edge="1" parent="1" source="6OFfmoWPv642zYZvqouN-1" target="6OFfmoWPv642zYZvqouN-4">
          <mxGeometry width="160" relative="1" as="geometry">
            <mxPoint x="360" y="490" as="sourcePoint" />
            <mxPoint x="520" y="490" as="targetPoint" />
          </mxGeometry>
        </mxCell>
        <mxCell id="6OFfmoWPv642zYZvqouN-27" value="" style="endArrow=open;endFill=1;endSize=12;html=1;rounded=0;exitX=1;exitY=0.3333333333333333;exitDx=0;exitDy=0;exitPerimeter=0;entryX=0;entryY=0.5;entryDx=0;entryDy=0;" edge="1" parent="1" source="6OFfmoWPv642zYZvqouN-1" target="6OFfmoWPv642zYZvqouN-5">
          <mxGeometry width="160" relative="1" as="geometry">
            <mxPoint x="360" y="490" as="sourcePoint" />
            <mxPoint x="520" y="490" as="targetPoint" />
          </mxGeometry>
        </mxCell>
        <mxCell id="6OFfmoWPv642zYZvqouN-28" value="" style="endArrow=open;endFill=1;endSize=12;html=1;rounded=0;exitX=0;exitY=0.5;exitDx=0;exitDy=0;entryX=1;entryY=0.3333333333333333;entryDx=0;entryDy=0;entryPerimeter=0;" edge="1" parent="1" source="6OFfmoWPv642zYZvqouN-17" target="6OFfmoWPv642zYZvqouN-1">
          <mxGeometry width="160" relative="1" as="geometry">
            <mxPoint x="360" y="490" as="sourcePoint" />
            <mxPoint x="560" y="480" as="targetPoint" />
          </mxGeometry>
        </mxCell>
        <mxCell id="6OFfmoWPv642zYZvqouN-31" value="Login" style="text;align=center;fontStyle=1;verticalAlign=middle;spacingLeft=3;spacingRight=3;strokeColor=none;rotatable=0;points=[[0,0.5],[1,0.5]];portConstraint=eastwest;html=1;" vertex="1" parent="1">
          <mxGeometry x="360" y="170" width="80" height="26" as="geometry" />
        </mxCell>
        <mxCell id="7_E6kY_ISerxhg5wgufN-1" value="" style="endArrow=open;endFill=1;endSize=12;html=1;rounded=0;entryX=1;entryY=0.3333333333333333;entryDx=0;entryDy=0;entryPerimeter=0;exitX=0;exitY=0.5;exitDx=0;exitDy=0;" edge="1" parent="1" source="6OFfmoWPv642zYZvqouN-15" target="6OFfmoWPv642zYZvqouN-1">
          <mxGeometry width="160" relative="1" as="geometry">
            <mxPoint x="350" y="570" as="sourcePoint" />
            <mxPoint x="510" y="570" as="targetPoint" />
          </mxGeometry>
        </mxCell>
        <mxCell id="7_E6kY_ISerxhg5wgufN-2" value="" style="endArrow=open;endFill=1;endSize=12;html=1;rounded=0;exitX=0;exitY=0.5;exitDx=0;exitDy=0;entryX=1;entryY=0.3333333333333333;entryDx=0;entryDy=0;entryPerimeter=0;" edge="1" parent="1" source="6OFfmoWPv642zYZvqouN-15" target="6OFfmoWPv642zYZvqouN-10">
          <mxGeometry width="160" relative="1" as="geometry">
            <mxPoint x="350" y="570" as="sourcePoint" />
            <mxPoint x="510" y="570" as="targetPoint" />
          </mxGeometry>
        </mxCell>
      </root>
    </mxGraphModel>
  </diagram>
  <diagram id="b9RpbWW-PfuMLTtC1jTi" name="ForgotPassword">
    <mxGraphModel dx="1588" dy="1114" grid="1" gridSize="10" guides="1" tooltips="1" connect="1" arrows="1" fold="1" page="1" pageScale="1" pageWidth="827" pageHeight="1169" math="0" shadow="0">
      <root>
        <mxCell id="0" />
        <mxCell id="1" parent="0" />
        <mxCell id="u96pWmZ7tkXJQlEZ2UDu-8" value="" style="verticalLabelPosition=bottom;verticalAlign=top;html=1;shape=mxgraph.basic.rect;fillColor2=none;strokeWidth=1;size=20;indent=5;" vertex="1" parent="1">
          <mxGeometry x="270" y="240" width="160" height="610" as="geometry" />
        </mxCell>
        <mxCell id="vGah9C95sdXqpuTDbS7x-1" value="user" style="shape=umlActor;verticalLabelPosition=bottom;verticalAlign=top;html=1;outlineConnect=0;" vertex="1" parent="1">
          <mxGeometry x="103" y="488" width="30" height="60" as="geometry" />
        </mxCell>
        <mxCell id="vGah9C95sdXqpuTDbS7x-2" value="Fill username" style="ellipse;whiteSpace=wrap;html=1;" vertex="1" parent="1">
          <mxGeometry x="280" y="288" width="140" height="70" as="geometry" />
        </mxCell>
        <mxCell id="vGah9C95sdXqpuTDbS7x-3" value="Fill code reset" style="ellipse;whiteSpace=wrap;html=1;" vertex="1" parent="1">
          <mxGeometry x="280" y="660" width="140" height="70" as="geometry" />
        </mxCell>
        <mxCell id="vGah9C95sdXqpuTDbS7x-4" value="Authentication" style="ellipse;whiteSpace=wrap;html=1;" vertex="1" parent="1">
          <mxGeometry x="280" y="386" width="140" height="70" as="geometry" />
        </mxCell>
        <mxCell id="7I54ulOKI9qM5gGnWegG-1" value="Send code reset" style="ellipse;whiteSpace=wrap;html=1;" vertex="1" parent="1">
          <mxGeometry x="280" y="484" width="140" height="70" as="geometry" />
        </mxCell>
        <mxCell id="7I54ulOKI9qM5gGnWegG-2" value="Fill password reset" style="ellipse;whiteSpace=wrap;html=1;" vertex="1" parent="1">
          <mxGeometry x="280" y="760" width="140" height="70" as="geometry" />
        </mxCell>
        <mxCell id="u96pWmZ7tkXJQlEZ2UDu-1" value="Sytem" style="shape=umlActor;verticalLabelPosition=bottom;verticalAlign=top;html=1;outlineConnect=0;" vertex="1" parent="1">
          <mxGeometry x="570" y="488" width="30" height="60" as="geometry" />
        </mxCell>
        <mxCell id="u96pWmZ7tkXJQlEZ2UDu-2" value="" style="endArrow=open;endFill=1;endSize=12;html=1;rounded=0;exitX=1;exitY=0.3333333333333333;exitDx=0;exitDy=0;exitPerimeter=0;entryX=0;entryY=0.5;entryDx=0;entryDy=0;" edge="1" parent="1" source="vGah9C95sdXqpuTDbS7x-1" target="vGah9C95sdXqpuTDbS7x-2">
          <mxGeometry width="160" relative="1" as="geometry">
            <mxPoint x="300" y="520" as="sourcePoint" />
            <mxPoint x="460" y="520" as="targetPoint" />
          </mxGeometry>
        </mxCell>
        <mxCell id="u96pWmZ7tkXJQlEZ2UDu-3" value="" style="endArrow=open;endFill=1;endSize=12;html=1;rounded=0;exitX=1;exitY=0.3333333333333333;exitDx=0;exitDy=0;exitPerimeter=0;entryX=0;entryY=0.5;entryDx=0;entryDy=0;" edge="1" parent="1" source="vGah9C95sdXqpuTDbS7x-1" target="7I54ulOKI9qM5gGnWegG-2">
          <mxGeometry width="160" relative="1" as="geometry">
            <mxPoint x="143" y="518" as="sourcePoint" />
            <mxPoint x="290" y="333" as="targetPoint" />
          </mxGeometry>
        </mxCell>
        <mxCell id="u96pWmZ7tkXJQlEZ2UDu-4" value="" style="endArrow=open;endFill=1;endSize=12;html=1;rounded=0;exitX=1;exitY=0.3333333333333333;exitDx=0;exitDy=0;exitPerimeter=0;entryX=0;entryY=0.5;entryDx=0;entryDy=0;" edge="1" parent="1" source="vGah9C95sdXqpuTDbS7x-1" target="vGah9C95sdXqpuTDbS7x-3">
          <mxGeometry width="160" relative="1" as="geometry">
            <mxPoint x="300" y="520" as="sourcePoint" />
            <mxPoint x="460" y="520" as="targetPoint" />
          </mxGeometry>
        </mxCell>
        <mxCell id="u96pWmZ7tkXJQlEZ2UDu-5" value="" style="endArrow=open;endFill=1;endSize=12;html=1;rounded=0;exitX=0;exitY=0.3333333333333333;exitDx=0;exitDy=0;exitPerimeter=0;entryX=1;entryY=0.5;entryDx=0;entryDy=0;" edge="1" parent="1" source="u96pWmZ7tkXJQlEZ2UDu-1" target="7I54ulOKI9qM5gGnWegG-1">
          <mxGeometry width="160" relative="1" as="geometry">
            <mxPoint x="300" y="520" as="sourcePoint" />
            <mxPoint x="460" y="520" as="targetPoint" />
          </mxGeometry>
        </mxCell>
        <mxCell id="u96pWmZ7tkXJQlEZ2UDu-6" value="" style="endArrow=open;endFill=1;endSize=12;html=1;rounded=0;exitX=0;exitY=0.3333333333333333;exitDx=0;exitDy=0;exitPerimeter=0;entryX=1;entryY=0.5;entryDx=0;entryDy=0;" edge="1" parent="1" source="u96pWmZ7tkXJQlEZ2UDu-1" target="vGah9C95sdXqpuTDbS7x-4">
          <mxGeometry width="160" relative="1" as="geometry">
            <mxPoint x="300" y="520" as="sourcePoint" />
            <mxPoint x="460" y="520" as="targetPoint" />
          </mxGeometry>
        </mxCell>
        <mxCell id="u96pWmZ7tkXJQlEZ2UDu-7" value="" style="endArrow=open;endFill=1;endSize=12;html=1;rounded=0;exitX=0;exitY=0.5;exitDx=0;exitDy=0;entryX=1;entryY=0.3333333333333333;entryDx=0;entryDy=0;entryPerimeter=0;" edge="1" parent="1" source="7I54ulOKI9qM5gGnWegG-1" target="vGah9C95sdXqpuTDbS7x-1">
          <mxGeometry width="160" relative="1" as="geometry">
            <mxPoint x="300" y="520" as="sourcePoint" />
            <mxPoint x="460" y="520" as="targetPoint" />
          </mxGeometry>
        </mxCell>
        <mxCell id="u96pWmZ7tkXJQlEZ2UDu-9" value="Forgot Password" style="text;align=center;fontStyle=1;verticalAlign=middle;spacingLeft=3;spacingRight=3;strokeColor=none;rotatable=0;points=[[0,0.5],[1,0.5]];portConstraint=eastwest;html=1;" vertex="1" parent="1">
          <mxGeometry x="310" y="247" width="80" height="26" as="geometry" />
        </mxCell>
        <mxCell id="hj1ifjDDLBpDXiXd0BLV-1" value="Resende code" style="ellipse;whiteSpace=wrap;html=1;" vertex="1" parent="1">
          <mxGeometry x="280" y="570" width="140" height="70" as="geometry" />
        </mxCell>
        <mxCell id="hj1ifjDDLBpDXiXd0BLV-2" value="" style="endArrow=open;endFill=1;endSize=12;html=1;rounded=0;entryX=1;entryY=0.3333333333333333;entryDx=0;entryDy=0;entryPerimeter=0;exitX=0;exitY=0.5;exitDx=0;exitDy=0;" edge="1" parent="1" source="hj1ifjDDLBpDXiXd0BLV-1" target="vGah9C95sdXqpuTDbS7x-1">
          <mxGeometry width="160" relative="1" as="geometry">
            <mxPoint x="260" y="620" as="sourcePoint" />
            <mxPoint x="420" y="620" as="targetPoint" />
          </mxGeometry>
        </mxCell>
      </root>
    </mxGraphModel>
  </diagram>
  <diagram id="BFcfjH2TO_JE9HVYWxNq" name="UploadDocument">
    <mxGraphModel dx="1323" dy="928" grid="1" gridSize="10" guides="1" tooltips="1" connect="1" arrows="1" fold="1" page="1" pageScale="1" pageWidth="827" pageHeight="1169" math="0" shadow="0">
      <root>
        <mxCell id="0" />
        <mxCell id="1" parent="0" />
        <mxCell id="yvrRdF8tFOZ7VkJjFpSx-1" value="" style="verticalLabelPosition=bottom;verticalAlign=top;html=1;shape=mxgraph.basic.rect;fillColor2=none;strokeWidth=1;size=20;indent=5;" vertex="1" parent="1">
          <mxGeometry x="300" y="360" width="160" height="670" as="geometry" />
        </mxCell>
        <mxCell id="egC3mKqmEpHGpuNVVrmG-1" value="Fill some infomation" style="ellipse;whiteSpace=wrap;html=1;" vertex="1" parent="1">
          <mxGeometry x="310" y="490" width="140" height="70" as="geometry" />
        </mxCell>
        <mxCell id="egC3mKqmEpHGpuNVVrmG-2" value="Upload file" style="ellipse;whiteSpace=wrap;html=1;" vertex="1" parent="1">
          <mxGeometry x="310" y="580" width="140" height="70" as="geometry" />
        </mxCell>
        <mxCell id="egC3mKqmEpHGpuNVVrmG-3" value="Comment" style="ellipse;whiteSpace=wrap;html=1;" vertex="1" parent="1">
          <mxGeometry x="310" y="674.5" width="140" height="70" as="geometry" />
        </mxCell>
        <mxCell id="egC3mKqmEpHGpuNVVrmG-4" value="Fill title" style="ellipse;whiteSpace=wrap;html=1;" vertex="1" parent="1">
          <mxGeometry x="310" y="400" width="140" height="70" as="geometry" />
        </mxCell>
        <mxCell id="eTTMt2oD56WbbRjlUy23-1" value="Authentication&lt;span id=&quot;docs-internal-guid-ee535c2f-7fff-a496-18b6-2dd860153122&quot;&gt;&lt;/span&gt;&lt;span id=&quot;docs-internal-guid-ee535c2f-7fff-a496-18b6-2dd860153122&quot;&gt;&lt;/span&gt;&lt;span id=&quot;docs-internal-guid-ee535c2f-7fff-a496-18b6-2dd860153122&quot;&gt;&lt;/span&gt;&lt;span id=&quot;docs-internal-guid-88a149ee-7fff-91a4-eda8-40a7a0855ec4&quot;&gt;&lt;/span&gt;&lt;span id=&quot;docs-internal-guid-88a149ee-7fff-91a4-eda8-40a7a0855ec4&quot;&gt;&lt;/span&gt;" style="ellipse;whiteSpace=wrap;html=1;" vertex="1" parent="1">
          <mxGeometry x="310" y="770" width="140" height="70" as="geometry" />
        </mxCell>
        <mxCell id="o7_GvXexeoJ5mKDwfeEL-1" value="user" style="shape=umlActor;verticalLabelPosition=bottom;verticalAlign=top;html=1;outlineConnect=0;" vertex="1" parent="1">
          <mxGeometry x="80" y="592" width="30" height="60" as="geometry" />
        </mxCell>
        <mxCell id="o7_GvXexeoJ5mKDwfeEL-2" value="" style="endArrow=open;endFill=1;endSize=12;html=1;rounded=0;exitX=1;exitY=0.3333333333333333;exitDx=0;exitDy=0;exitPerimeter=0;entryX=0;entryY=0.5;entryDx=0;entryDy=0;" edge="1" parent="1" source="o7_GvXexeoJ5mKDwfeEL-1" target="egC3mKqmEpHGpuNVVrmG-4">
          <mxGeometry width="160" relative="1" as="geometry">
            <mxPoint x="300" y="610" as="sourcePoint" />
            <mxPoint x="460" y="610" as="targetPoint" />
          </mxGeometry>
        </mxCell>
        <mxCell id="o7_GvXexeoJ5mKDwfeEL-3" value="" style="endArrow=open;endFill=1;endSize=12;html=1;rounded=0;exitX=1;exitY=0.3333333333333333;exitDx=0;exitDy=0;exitPerimeter=0;entryX=0;entryY=0.5;entryDx=0;entryDy=0;" edge="1" parent="1" source="o7_GvXexeoJ5mKDwfeEL-1" target="egC3mKqmEpHGpuNVVrmG-1">
          <mxGeometry width="160" relative="1" as="geometry">
            <mxPoint x="300" y="610" as="sourcePoint" />
            <mxPoint x="460" y="610" as="targetPoint" />
          </mxGeometry>
        </mxCell>
        <mxCell id="o7_GvXexeoJ5mKDwfeEL-4" value="" style="endArrow=open;endFill=1;endSize=12;html=1;rounded=0;exitX=1;exitY=0.3333333333333333;exitDx=0;exitDy=0;exitPerimeter=0;entryX=0;entryY=0.5;entryDx=0;entryDy=0;" edge="1" parent="1" source="o7_GvXexeoJ5mKDwfeEL-1" target="egC3mKqmEpHGpuNVVrmG-2">
          <mxGeometry width="160" relative="1" as="geometry">
            <mxPoint x="300" y="610" as="sourcePoint" />
            <mxPoint x="460" y="610" as="targetPoint" />
          </mxGeometry>
        </mxCell>
        <mxCell id="o7_GvXexeoJ5mKDwfeEL-5" value="" style="endArrow=open;endFill=1;endSize=12;html=1;rounded=0;exitX=1;exitY=0.3333333333333333;exitDx=0;exitDy=0;exitPerimeter=0;entryX=0;entryY=0.5;entryDx=0;entryDy=0;" edge="1" parent="1" source="o7_GvXexeoJ5mKDwfeEL-1" target="egC3mKqmEpHGpuNVVrmG-3">
          <mxGeometry width="160" relative="1" as="geometry">
            <mxPoint x="300" y="610" as="sourcePoint" />
            <mxPoint x="460" y="610" as="targetPoint" />
          </mxGeometry>
        </mxCell>
        <mxCell id="o7_GvXexeoJ5mKDwfeEL-6" value="Notify upload via Mail" style="ellipse;whiteSpace=wrap;html=1;" vertex="1" parent="1">
          <mxGeometry x="310" y="860" width="140" height="70" as="geometry" />
        </mxCell>
        <mxCell id="o7_GvXexeoJ5mKDwfeEL-7" value="" style="endArrow=open;endFill=1;endSize=12;html=1;rounded=0;exitX=0;exitY=0.5;exitDx=0;exitDy=0;entryX=1;entryY=0.3333333333333333;entryDx=0;entryDy=0;entryPerimeter=0;" edge="1" parent="1" source="o7_GvXexeoJ5mKDwfeEL-6" target="o7_GvXexeoJ5mKDwfeEL-1">
          <mxGeometry width="160" relative="1" as="geometry">
            <mxPoint x="300" y="610" as="sourcePoint" />
            <mxPoint x="460" y="610" as="targetPoint" />
          </mxGeometry>
        </mxCell>
        <mxCell id="o7_GvXexeoJ5mKDwfeEL-8" value="system" style="shape=umlActor;verticalLabelPosition=bottom;verticalAlign=top;html=1;outlineConnect=0;" vertex="1" parent="1">
          <mxGeometry x="720" y="592" width="30" height="60" as="geometry" />
        </mxCell>
        <mxCell id="o7_GvXexeoJ5mKDwfeEL-9" value="" style="endArrow=open;endFill=1;endSize=12;html=1;rounded=0;exitX=0;exitY=0.3333333333333333;exitDx=0;exitDy=0;exitPerimeter=0;entryX=1;entryY=0.5;entryDx=0;entryDy=0;" edge="1" parent="1" source="o7_GvXexeoJ5mKDwfeEL-8" target="eTTMt2oD56WbbRjlUy23-1">
          <mxGeometry width="160" relative="1" as="geometry">
            <mxPoint x="300" y="610" as="sourcePoint" />
            <mxPoint x="460" y="610" as="targetPoint" />
          </mxGeometry>
        </mxCell>
        <mxCell id="o7_GvXexeoJ5mKDwfeEL-10" value="" style="endArrow=open;endFill=1;endSize=12;html=1;rounded=0;exitX=0;exitY=0.3333333333333333;exitDx=0;exitDy=0;exitPerimeter=0;entryX=1;entryY=0.5;entryDx=0;entryDy=0;" edge="1" parent="1" source="o7_GvXexeoJ5mKDwfeEL-8" target="o7_GvXexeoJ5mKDwfeEL-6">
          <mxGeometry width="160" relative="1" as="geometry">
            <mxPoint x="300" y="610" as="sourcePoint" />
            <mxPoint x="460" y="610" as="targetPoint" />
          </mxGeometry>
        </mxCell>
        <mxCell id="LGotq9hzHSvpdxMJ2C_R-1" value="UploadDocument" style="text;align=center;fontStyle=1;verticalAlign=middle;spacingLeft=3;spacingRight=3;strokeColor=none;rotatable=0;points=[[0,0.5],[1,0.5]];portConstraint=eastwest;html=1;" vertex="1" parent="1">
          <mxGeometry x="340" y="360" width="80" height="26" as="geometry" />
        </mxCell>
        <mxCell id="UbmvsaxoSvH1TepHH013-1" value="Notify error upload" style="ellipse;whiteSpace=wrap;html=1;" vertex="1" parent="1">
          <mxGeometry x="310" y="950" width="140" height="70" as="geometry" />
        </mxCell>
        <mxCell id="UbmvsaxoSvH1TepHH013-2" value="" style="endArrow=open;endFill=1;endSize=12;html=1;rounded=0;exitX=0;exitY=0.3333333333333333;exitDx=0;exitDy=0;exitPerimeter=0;entryX=1;entryY=0.5;entryDx=0;entryDy=0;" edge="1" parent="1" source="o7_GvXexeoJ5mKDwfeEL-8" target="UbmvsaxoSvH1TepHH013-1">
          <mxGeometry width="160" relative="1" as="geometry">
            <mxPoint x="730" y="622" as="sourcePoint" />
            <mxPoint x="460" y="905" as="targetPoint" />
          </mxGeometry>
        </mxCell>
        <mxCell id="UbmvsaxoSvH1TepHH013-3" value="" style="endArrow=open;endFill=1;endSize=12;html=1;rounded=0;exitX=0;exitY=0.5;exitDx=0;exitDy=0;entryX=1;entryY=0.3333333333333333;entryDx=0;entryDy=0;entryPerimeter=0;" edge="1" parent="1" source="UbmvsaxoSvH1TepHH013-1" target="o7_GvXexeoJ5mKDwfeEL-1">
          <mxGeometry width="160" relative="1" as="geometry">
            <mxPoint x="300" y="730" as="sourcePoint" />
            <mxPoint x="460" y="730" as="targetPoint" />
          </mxGeometry>
        </mxCell>
      </root>
    </mxGraphModel>
  </diagram>
  <diagram id="02tzvhHiOzARlQVF2b76" name="ViewDocument">
    <mxGraphModel dx="1134" dy="796" grid="1" gridSize="10" guides="1" tooltips="1" connect="1" arrows="1" fold="1" page="1" pageScale="1" pageWidth="827" pageHeight="1169" math="0" shadow="0">
      <root>
        <mxCell id="0" />
        <mxCell id="1" parent="0" />
        <mxCell id="KkZYSb0xqqK54RgdAlJy-3" value="" style="verticalLabelPosition=bottom;verticalAlign=top;html=1;shape=mxgraph.basic.rect;fillColor2=none;strokeWidth=1;size=20;indent=5;" vertex="1" parent="1">
          <mxGeometry x="445" y="690" width="160" height="250" as="geometry" />
        </mxCell>
        <mxCell id="dxLQKW_I8fLSqxFFwlWO-1" value="" style="verticalLabelPosition=bottom;verticalAlign=top;html=1;shape=mxgraph.basic.rect;fillColor2=none;strokeWidth=1;size=20;indent=5;" vertex="1" parent="1">
          <mxGeometry x="195" y="240" width="160" height="450" as="geometry" />
        </mxCell>
        <mxCell id="gyQ8FHfa2NamCpHUHBEd-1" value="Fillter" style="ellipse;whiteSpace=wrap;html=1;" vertex="1" parent="1">
          <mxGeometry x="205" y="290" width="140" height="70" as="geometry" />
        </mxCell>
        <mxCell id="gyQ8FHfa2NamCpHUHBEd-2" value="Search" style="ellipse;whiteSpace=wrap;html=1;" vertex="1" parent="1">
          <mxGeometry x="205" y="370" width="140" height="70" as="geometry" />
        </mxCell>
        <mxCell id="gyQ8FHfa2NamCpHUHBEd-3" value="View partly" style="ellipse;whiteSpace=wrap;html=1;" vertex="1" parent="1">
          <mxGeometry x="205" y="450" width="140" height="70" as="geometry" />
        </mxCell>
        <mxCell id="gyQ8FHfa2NamCpHUHBEd-4" value="View detaily" style="ellipse;whiteSpace=wrap;html=1;" vertex="1" parent="1">
          <mxGeometry x="205" y="530" width="140" height="70" as="geometry" />
        </mxCell>
        <mxCell id="gyQ8FHfa2NamCpHUHBEd-6" value="Download document" style="ellipse;whiteSpace=wrap;html=1;" vertex="1" parent="1">
          <mxGeometry x="455" y="700" width="140" height="70" as="geometry" />
        </mxCell>
        <mxCell id="gyQ8FHfa2NamCpHUHBEd-7" value="Edit information" style="ellipse;whiteSpace=wrap;html=1;" vertex="1" parent="1">
          <mxGeometry x="455" y="780" width="140" height="70" as="geometry" />
        </mxCell>
        <mxCell id="0U9xOfJM2g9Xi391zt6v-1" value="Include" style="html=1;verticalAlign=bottom;endArrow=open;dashed=1;endSize=8;edgeStyle=elbowEdgeStyle;elbow=vertical;curved=0;rounded=0;entryX=0.482;entryY=0.008;entryDx=0;entryDy=0;exitX=1;exitY=0.5;exitDx=0;exitDy=0;entryPerimeter=0;" edge="1" parent="1" source="gyQ8FHfa2NamCpHUHBEd-4" target="KkZYSb0xqqK54RgdAlJy-3">
          <mxGeometry relative="1" as="geometry">
            <mxPoint x="415" y="510" as="sourcePoint" />
            <mxPoint x="335" y="510" as="targetPoint" />
            <Array as="points">
              <mxPoint x="420" y="600" />
            </Array>
          </mxGeometry>
        </mxCell>
        <mxCell id="0U9xOfJM2g9Xi391zt6v-2" value="Comment" style="ellipse;whiteSpace=wrap;html=1;" vertex="1" parent="1">
          <mxGeometry x="455" y="860" width="140" height="70" as="geometry" />
        </mxCell>
        <mxCell id="KkZYSb0xqqK54RgdAlJy-1" value="ViewDocument" style="text;align=center;fontStyle=1;verticalAlign=middle;spacingLeft=3;spacingRight=3;strokeColor=none;rotatable=0;points=[[0,0.5],[1,0.5]];portConstraint=eastwest;html=1;" vertex="1" parent="1">
          <mxGeometry x="235" y="250" width="80" height="26" as="geometry" />
        </mxCell>
        <mxCell id="KkZYSb0xqqK54RgdAlJy-4" value="User" style="shape=umlActor;verticalLabelPosition=bottom;verticalAlign=top;html=1;" vertex="1" parent="1">
          <mxGeometry x="20" y="730" width="30" height="60" as="geometry" />
        </mxCell>
        <mxCell id="KkZYSb0xqqK54RgdAlJy-5" value="Systeam" style="shape=umlActor;verticalLabelPosition=bottom;verticalAlign=top;html=1;" vertex="1" parent="1">
          <mxGeometry x="770" y="570" width="30" height="60" as="geometry" />
        </mxCell>
        <mxCell id="KkZYSb0xqqK54RgdAlJy-6" value="Notify error search" style="ellipse;whiteSpace=wrap;html=1;" vertex="1" parent="1">
          <mxGeometry x="205" y="610" width="140" height="70" as="geometry" />
        </mxCell>
        <mxCell id="KkZYSb0xqqK54RgdAlJy-7" value="Show list of document" style="ellipse;whiteSpace=wrap;html=1;" vertex="1" parent="1">
          <mxGeometry x="455" y="440" width="140" height="70" as="geometry" />
        </mxCell>
        <mxCell id="KkZYSb0xqqK54RgdAlJy-8" value="Include" style="html=1;verticalAlign=bottom;endArrow=open;dashed=1;endSize=8;edgeStyle=elbowEdgeStyle;elbow=vertical;curved=0;rounded=0;exitX=1;exitY=0.5;exitDx=0;exitDy=0;entryX=0;entryY=0.5;entryDx=0;entryDy=0;" edge="1" parent="1" source="gyQ8FHfa2NamCpHUHBEd-3" target="KkZYSb0xqqK54RgdAlJy-7">
          <mxGeometry relative="1" as="geometry">
            <mxPoint x="510" y="610" as="sourcePoint" />
            <mxPoint x="430" y="610" as="targetPoint" />
          </mxGeometry>
        </mxCell>
        <mxCell id="KkZYSb0xqqK54RgdAlJy-9" value="" style="endArrow=open;endFill=1;endSize=12;html=1;rounded=0;exitX=1;exitY=0.3333333333333333;exitDx=0;exitDy=0;exitPerimeter=0;entryX=0;entryY=0.5;entryDx=0;entryDy=0;" edge="1" parent="1" source="KkZYSb0xqqK54RgdAlJy-4" target="gyQ8FHfa2NamCpHUHBEd-1">
          <mxGeometry width="160" relative="1" as="geometry">
            <mxPoint x="390" y="610" as="sourcePoint" />
            <mxPoint x="550" y="610" as="targetPoint" />
          </mxGeometry>
        </mxCell>
        <mxCell id="KkZYSb0xqqK54RgdAlJy-10" value="" style="endArrow=open;endFill=1;endSize=12;html=1;rounded=0;exitX=1;exitY=0.3333333333333333;exitDx=0;exitDy=0;exitPerimeter=0;entryX=0;entryY=0.5;entryDx=0;entryDy=0;" edge="1" parent="1" source="KkZYSb0xqqK54RgdAlJy-4" target="gyQ8FHfa2NamCpHUHBEd-2">
          <mxGeometry width="160" relative="1" as="geometry">
            <mxPoint x="390" y="610" as="sourcePoint" />
            <mxPoint x="550" y="610" as="targetPoint" />
          </mxGeometry>
        </mxCell>
        <mxCell id="KkZYSb0xqqK54RgdAlJy-11" value="" style="endArrow=open;endFill=1;endSize=12;html=1;rounded=0;exitX=1;exitY=0.3333333333333333;exitDx=0;exitDy=0;exitPerimeter=0;entryX=0;entryY=0.5;entryDx=0;entryDy=0;" edge="1" parent="1" source="KkZYSb0xqqK54RgdAlJy-4" target="gyQ8FHfa2NamCpHUHBEd-3">
          <mxGeometry width="160" relative="1" as="geometry">
            <mxPoint x="390" y="610" as="sourcePoint" />
            <mxPoint x="550" y="610" as="targetPoint" />
          </mxGeometry>
        </mxCell>
        <mxCell id="KkZYSb0xqqK54RgdAlJy-12" value="" style="endArrow=open;endFill=1;endSize=12;html=1;rounded=0;exitX=1;exitY=0.3333333333333333;exitDx=0;exitDy=0;exitPerimeter=0;entryX=0;entryY=0.5;entryDx=0;entryDy=0;" edge="1" parent="1" source="KkZYSb0xqqK54RgdAlJy-4" target="gyQ8FHfa2NamCpHUHBEd-4">
          <mxGeometry width="160" relative="1" as="geometry">
            <mxPoint x="390" y="610" as="sourcePoint" />
            <mxPoint x="550" y="610" as="targetPoint" />
          </mxGeometry>
        </mxCell>
        <mxCell id="KkZYSb0xqqK54RgdAlJy-13" value="" style="endArrow=open;endFill=1;endSize=12;html=1;rounded=0;exitX=1;exitY=0.3333333333333333;exitDx=0;exitDy=0;exitPerimeter=0;entryX=0;entryY=0.5;entryDx=0;entryDy=0;" edge="1" parent="1" source="KkZYSb0xqqK54RgdAlJy-4" target="0U9xOfJM2g9Xi391zt6v-2">
          <mxGeometry width="160" relative="1" as="geometry">
            <mxPoint x="390" y="610" as="sourcePoint" />
            <mxPoint x="550" y="610" as="targetPoint" />
          </mxGeometry>
        </mxCell>
        <mxCell id="KkZYSb0xqqK54RgdAlJy-14" value="" style="endArrow=open;endFill=1;endSize=12;html=1;rounded=0;exitX=1;exitY=0.3333333333333333;exitDx=0;exitDy=0;exitPerimeter=0;entryX=0;entryY=0.5;entryDx=0;entryDy=0;" edge="1" parent="1" source="KkZYSb0xqqK54RgdAlJy-4" target="gyQ8FHfa2NamCpHUHBEd-6">
          <mxGeometry width="160" relative="1" as="geometry">
            <mxPoint x="390" y="610" as="sourcePoint" />
            <mxPoint x="550" y="610" as="targetPoint" />
          </mxGeometry>
        </mxCell>
        <mxCell id="KkZYSb0xqqK54RgdAlJy-15" value="" style="endArrow=open;endFill=1;endSize=12;html=1;rounded=0;exitX=1;exitY=0.3333333333333333;exitDx=0;exitDy=0;exitPerimeter=0;entryX=0;entryY=0.5;entryDx=0;entryDy=0;" edge="1" parent="1" source="KkZYSb0xqqK54RgdAlJy-4" target="gyQ8FHfa2NamCpHUHBEd-7">
          <mxGeometry width="160" relative="1" as="geometry">
            <mxPoint x="390" y="610" as="sourcePoint" />
            <mxPoint x="550" y="610" as="targetPoint" />
          </mxGeometry>
        </mxCell>
        <mxCell id="KkZYSb0xqqK54RgdAlJy-16" value="" style="endArrow=open;endFill=1;endSize=12;html=1;rounded=0;exitX=0;exitY=0.3333333333333333;exitDx=0;exitDy=0;exitPerimeter=0;entryX=1;entryY=0.5;entryDx=0;entryDy=0;" edge="1" parent="1" source="KkZYSb0xqqK54RgdAlJy-5" target="KkZYSb0xqqK54RgdAlJy-6">
          <mxGeometry width="160" relative="1" as="geometry">
            <mxPoint x="390" y="610" as="sourcePoint" />
            <mxPoint x="550" y="610" as="targetPoint" />
          </mxGeometry>
        </mxCell>
        <mxCell id="KkZYSb0xqqK54RgdAlJy-17" value="" style="endArrow=open;endFill=1;endSize=12;html=1;rounded=0;exitX=0;exitY=0.3333333333333333;exitDx=0;exitDy=0;exitPerimeter=0;entryX=1;entryY=0.5;entryDx=0;entryDy=0;" edge="1" parent="1" source="KkZYSb0xqqK54RgdAlJy-5" target="KkZYSb0xqqK54RgdAlJy-7">
          <mxGeometry width="160" relative="1" as="geometry">
            <mxPoint x="390" y="610" as="sourcePoint" />
            <mxPoint x="550" y="610" as="targetPoint" />
          </mxGeometry>
        </mxCell>
        <mxCell id="x9xm8wNzsLiJAjpr2UEd-1" value="" style="endArrow=open;endFill=1;endSize=12;html=1;rounded=0;exitX=0;exitY=0.5;exitDx=0;exitDy=0;entryX=1;entryY=0.3333333333333333;entryDx=0;entryDy=0;entryPerimeter=0;" edge="1" parent="1" source="KkZYSb0xqqK54RgdAlJy-6" target="KkZYSb0xqqK54RgdAlJy-4">
          <mxGeometry width="160" relative="1" as="geometry">
            <mxPoint x="390" y="620" as="sourcePoint" />
            <mxPoint x="550" y="620" as="targetPoint" />
          </mxGeometry>
        </mxCell>
      </root>
    </mxGraphModel>
  </diagram>
</mxfile>
